<svg width="128" height="128" viewBox="0 0 128 128" fill="none" xmlns="http://www.w3.org/2000/svg">
  <!-- Background -->
  <rect width="128" height="128" rx="24" fill="url(#gradient)"/>
  
  <!-- Sun -->
  <circle cx="64" cy="50" r="20" fill="#FFD700"/>
  <g stroke="#FFD700" stroke-width="3" stroke-linecap="round">
    <line x1="64" y1="20" x2="64" y2="28"/>
    <line x1="64" y1="72" x2="64" y2="80"/>
    <line x1="34" y1="50" x2="42" y2="50"/>
    <line x1="86" y1="50" x2="94" y2="50"/>
    <line x1="42" y1="28" x2="48" y2="34"/>
    <line x1="80" y1="66" x2="86" y2="72"/>
    <line x1="42" y1="72" x2="48" y2="66"/>
    <line x1="80" y1="34" x2="86" y2="28"/>
  </g>
  
  <!-- Cloud -->
  <path d="M 40 70 Q 40 60 50 60 Q 50 50 60 50 Q 70 50 75 55 Q 85 55 85 65 Q 85 75 75 75 L 45 75 Q 40 75 40 70 Z" fill="white" opacity="0.9"/>
  
  <!-- Rain drops -->
  <line x1="50" y1="80" x2="48" y2="90" stroke="#4FC3F7" stroke-width="2" stroke-linecap="round"/>
  <line x1="64" y1="80" x2="62" y2="90" stroke="#4FC3F7" stroke-width="2" stroke-linecap="round"/>
  <line x1="78" y1="80" x2="76" y2="90" stroke="#4FC3F7" stroke-width="2" stroke-linecap="round"/>
  
  <defs>
    <linearGradient id="gradient" x1="0" y1="0" x2="128" y2="128">
      <stop offset="0%" stop-color="#667eea"/>
      <stop offset="100%" stop-color="#764ba2"/>
    </linearGradient>
  </defs>
</svg>
